<?xml version="1.0" standalone="no"?>
<!DOCTYPE svg PUBLIC "-//W3C//DTD SVG 20010904//EN"
 "http://www.w3.org/TR/2001/REC-SVG-20010904/DTD/svg10.dtd">
<svg version="1.0" xmlns="http://www.w3.org/2000/svg"
 width="192.000000pt" height="192.000000pt" viewBox="0 0 192.000000 192.000000"
 preserveAspectRatio="xMidYMid meet">
<metadata>
Created by potrace 1.14, written by Peter Selinger 2001-2017
</metadata>
<g transform="translate(0.000000,192.000000) scale(0.100000,-0.100000)"
fill="#000000" stroke="none">
<path d="M0 960 l0 -960 960 0 960 0 0 960 0 960 -960 0 -960 0 0 -960z m549
383 c16 -14 37 -77 86 -258 36 -132 65 -246 65 -253 0 -22 23 -8 31 19 4 13
37 125 74 249 46 157 72 230 87 243 15 12 38 17 85 17 94 0 96 -3 177 -275 76
-253 84 -276 96 -254 4 8 31 100 60 204 28 105 59 214 67 242 17 61 42 83 96
83 53 0 77 -15 77 -48 0 -26 -57 -239 -165 -617 -27 -95 -52 -165 -62 -172
-27 -20 -147 -17 -165 5 -9 9 -53 130 -97 269 -45 139 -86 255 -91 258 -8 5
-54 -126 -135 -390 -21 -66 -44 -128 -53 -137 -19 -22 -138 -25 -166 -5 -16
12 -77 200 -197 616 -47 163 -49 174 -34 197 14 21 23 24 79 24 46 0 70 -5 85
-17z"/>
</g>
</svg>
